<svg width="566" height="554" viewBox="0 0 566 554" fill="none" xmlns="http://www.w3.org/2000/svg">
<path d="M381.014 188.159C385.745 186.222 389.609 183.951 393.754 180.946C394.717 191.043 394.492 201.19 394.518 211.323C392.341 210.666 390.135 210.13 387.899 209.715C385.663 209.3 383.411 209.01 381.143 208.843L381.014 188.159Z" fill="#121212"/>
<path d="M161.801 328.639C162.263 326.192 162.788 323.597 164.631 321.777C169.59 316.88 189.484 318.917 196.488 318.996L238.947 318.925C237.178 324.179 235.755 329.505 234.326 334.858C232.801 340.859 231.56 346.895 230.352 352.967C229.815 355.669 229.522 359.034 228.601 361.606H97.2628C77.6388 361.034 57.8788 361.587 38.2398 361.578C25.8748 361.573 12.6968 360.512 0.444824 361.79L0.464813 334.637L161.658 334.623C161.584 332.611 161.678 330.648 161.801 328.639Z" fill="#CF9E18"/>
<path d="M161.801 328.639C162.263 326.192 162.788 323.597 164.631 321.777C169.59 316.88 189.484 318.917 196.488 318.996L238.947 318.925C237.178 324.179 235.755 329.505 234.326 334.858C210.2 334.565 186.074 334.572 161.948 334.88L161.801 328.639Z" fill="#010101"/>
<path d="M265.025 515.398C271.077 516.444 287.969 524.079 295.006 526.742C314.489 534.179 334.127 541.178 353.922 547.74C358.198 549.189 363.368 550.477 367.129 552.971C348.858 553.792 330.214 553.035 311.914 552.98C297.401 552.936 282.118 553.84 267.686 552.496C264.337 552.185 261.552 551.502 258.426 550.304C254.599 548.135 251.138 545.518 249.278 541.392C247.535 537.526 247.712 533.211 249.384 529.358C252.307 522.627 258.461 518.157 265.025 515.398Z" fill="#010101"/>
<path d="M482.04 514.848C489.125 517.948 496.471 522.022 499.483 529.624C500.895 533.185 501.094 537.249 499.562 540.808C497.608 545.346 493.511 548.253 489.453 550.771C486.115 551.966 483.086 552.499 479.556 552.775C464.517 553.951 446.21 553.013 430.874 553.01L397.015 553.014C390.563 553.023 383.995 553.285 377.555 552.916C382.612 550.465 388.558 549.159 393.881 547.294L429.273 534.593C440.8 530.309 452.294 525.941 463.756 521.488C469.499 519.27 476.019 515.966 482.04 514.848Z" fill="#010101"/>
<path d="M229 0.295074L244.769 0.295015C256 0.295015 263.86 0.790989 269.692 0.799989L354.342 0.871004C361.948 0.877004 380.523 -0.231988 386.719 1.34201C389.055 1.93601 390.827 3.34399 392.034 5.41599C392.774 6.68499 393.168 8.00202 393.306 9.45902C394.045 17.233 393.466 25.532 393.436 33.353C393.371 50.157 393.18 66.991 393.379 83.794C388.603 82.689 384.644 80.722 379.587 80.37C380.645 77.298 380.313 22.409 379.173 19.505C378.772 18.485 377.66 17.651 376.846 16.966C366.028 15.097 354.194 16.07 343.23 16.104L287.851 16.2L144.861 16.113C126.841 16.17 108.761 15.875 90.75 16.244C88.571 16.289 85.943 16.109 84.021 17.275C83.392 17.656 82.648 18.189 82.527 18.923C81.148 27.338 82.114 37.066 82.173 45.596C82.2497 60.4007 82.2517 75.2057 82.179 90.011L81.986 193.95C81.988 210.301 81.408 226.887 82.018 243.214C82.127 246.116 82.447 249.299 83.86 251.874C89.111 253.641 135.131 252.561 144.445 252.561L271.974 252.598C268.066 257.121 264.835 262.282 261.613 267.307C251.569 283.611 244.604 300.667 238.947 318.925L196.488 318.996L196.709 266.845C186.355 266.302 175.831 266.62 165.457 266.598L109.102 266.555C99.273 266.553 88.973 267.173 79.18 266.42C76.78 266.236 73.329 265.737 71.319 264.33C69.375 262.969 67.863 259.876 67.609 257.555C66.344 246.018 67.236 232.418 67.206 220.669L67.062 147.193L67.181 57.907L67.266 26.581C67.298 20.839 67.072 14.894 67.597 9.177C67.771 7.282 68.592 5.569 69.803 4.116C71.263 2.364 72.952 1.503 75.184 1.125C84.136 -0.389999 97.291 0.600015 106.692 0.601015L179.847 0.640016C190.76 0.675016 189.5 0.799989 201 0.295074C201.205 0.270074 219.296 0.667016 219.5 0.640016C225.5 0.640016 229 0.295074 229 0.295074Z" fill="#121212"/>
<path d="M196.709 266.845C211.808 267.423 227.031 267.021 242.145 267.017C248.465 267.016 255.357 266.514 261.613 267.307C251.569 283.611 244.604 300.667 238.947 318.925L196.488 318.996L196.709 266.845Z" fill="#2E2E2E"/>
<path d="M265.025 515.398C254.269 511.427 243.678 507.001 233.005 502.812C212.319 494.693 191.273 488.592 180.605 467.091C175.911 457.63 174.459 446.026 178.013 435.942C180.446 429.041 185.323 424.067 191.868 420.965C197.904 418.104 204.59 417.057 211.228 417.064C232.075 417.086 268.82 428.342 289.151 435.49L289.277 436.427C290.009 442.279 288.433 454.815 290.153 459.339C290.815 461.08 292.129 462.448 293.573 463.58C297.83 466.915 303.331 468.617 308.425 470.21C347.223 478.187 390.579 476.696 429.642 471.265C436.097 468.412 445.306 468 450.513 462.592C454.585 458.362 453.392 441.587 453.424 435.57C460.134 434.067 466.753 431.635 473.335 429.633C480.675 427.401 488.115 425.458 495.521 423.455C511.871 418.9 538.051 412.355 553.786 421.482C559.522 424.808 562.655 430.579 564.167 436.853C566.87 448.078 564.852 462.587 558.698 472.421C545.041 494.243 504.947 505.054 482.04 514.848C476.019 515.966 469.499 519.27 463.756 521.488C452.294 525.941 440.8 530.309 429.273 534.593L393.881 547.294C388.558 549.159 382.612 550.465 377.555 552.916C374.08 552.916 370.604 552.934 367.129 552.971C363.368 550.477 358.198 549.189 353.922 547.74C334.127 541.178 314.489 534.179 295.006 526.742C287.969 524.079 271.077 516.444 265.025 515.398Z" fill="#121212"/>
<path d="M308.425 470.21C347.223 478.187 390.579 476.696 429.642 471.265C429.119 471.997 428.713 472.469 427.972 473.011C422.676 476.89 415.869 479.815 410.049 482.892C401.06 487.645 391.936 493.01 382.556 496.908C379.403 498.219 373.713 500.634 370.291 500.033C364.735 499.059 316.61 476.195 310.446 472.282C309.546 471.711 309.026 471.072 308.425 470.21Z" fill="#2E2E2E"/>
<path d="M339.552 208.414C346.352 207.777 353.37 208.261 360.197 208.401C367.167 208.544 374.186 208.449 381.143 208.843C383.411 209.01 385.663 209.3 387.899 209.715C390.135 210.13 392.341 210.666 394.518 211.323C437.68 224.758 467.736 247.773 488.782 288.047C501.67 312.711 524.187 379.799 515.587 406.513C515.506 406.765 515.418 407.014 515.334 407.265C511.546 414.793 506.337 419.123 498.339 421.753C497.144 422.146 495.946 422.554 494.718 422.832C481.292 426.013 467.414 426.975 453.652 426.996L453.424 435.57C453.392 441.587 454.585 458.362 450.513 462.592C445.306 468 436.097 468.412 429.642 471.265C390.579 476.696 347.223 478.187 308.425 470.21C303.331 468.617 297.83 466.915 293.573 463.58C292.129 462.448 290.815 461.08 290.153 459.339C288.433 454.815 290.009 442.279 289.277 436.427L289.151 435.49C288.848 432.131 288.694 428.757 288.502 425.39C277.2 425.482 266.15 424.962 254.932 423.483C245.998 422.305 234.038 421.133 228.303 413.332C220.345 402.507 226.505 374.491 228.601 361.606C229.522 359.034 229.815 355.669 230.352 352.967C231.56 346.895 232.801 340.859 234.326 334.858C235.755 329.505 237.178 324.179 238.947 318.925C244.604 300.667 251.569 283.611 261.613 267.307C264.835 262.282 268.066 257.121 271.974 252.598C276.18 248.863 279.479 243.746 283.509 239.738C298.907 224.425 318.247 212.931 339.552 208.414Z" fill="#F2B819"/>
<path d="M270.529 384.036L270.187 383.38C271.028 376.439 274.26 368.765 276.282 362.026C278.886 353.344 280.905 343.952 284.431 335.616C285.249 344.537 285.508 353.569 286.083 362.514L278.985 362.574C277.01 368.212 273.998 379.371 270.529 384.036Z" fill="#CF9E18"/>
<path d="M455.365 354.898C454.243 345.482 456.244 335.942 455.17 326.583C461.163 343.064 473.722 376.567 483.854 389.603C487.846 394.739 492.462 398.775 498.374 401.543C503.572 403.978 509.718 406.147 515.334 407.265C511.546 414.793 506.337 419.123 498.339 421.753C497.144 422.146 495.946 422.554 494.718 422.832C481.292 426.013 467.414 426.975 453.652 426.996C454.216 420.828 453.672 385.706 455.013 383.422L455.358 383.366L454.706 382.706C453.906 377.185 454.507 360.391 455.365 354.898Z" fill="#CF9E18"/>
<path d="M271.974 252.598L144.445 252.561C135.131 252.561 89.111 253.641 83.86 251.874C82.447 249.299 82.127 246.116 82.018 243.214C81.408 226.887 81.988 210.301 81.986 193.95L82.179 90.011C82.2517 75.2057 82.2497 60.4007 82.173 45.596C82.114 37.066 81.148 27.338 82.527 18.923C82.648 18.189 83.392 17.656 84.021 17.275C85.943 16.109 88.571 16.289 90.75 16.244C108.761 15.875 126.841 16.17 144.861 16.113L287.851 16.2L343.23 16.104C354.194 16.07 366.028 15.097 376.846 16.966C377.66 17.651 378.772 18.485 379.173 19.505C380.313 22.409 380.645 77.298 379.587 80.37C384.644 80.722 388.603 82.689 393.379 83.794C403.598 89.318 411.119 96.913 414.493 108.253C420.123 127.172 413.668 149.465 404.454 166.191C401.844 170.929 398.034 177.53 393.754 180.946C389.609 183.951 385.745 186.222 381.014 188.159L381.143 208.843C374.186 208.449 367.167 208.544 360.197 208.401C353.37 208.261 346.352 207.777 339.552 208.414C318.247 212.931 298.907 224.425 283.509 239.738C279.479 243.746 276.18 248.863 271.974 252.598Z" fill="#F5F5F5"/>
<path d="M320.522 128.297C315.787 116.994 312.279 100.233 316.367 88.334C318.822 81.189 323.775 75.714 330.578 72.444C349.707 63.251 361.086 74.201 378.633 80.058L379.587 80.37C384.644 80.722 388.603 82.689 393.379 83.794C403.598 89.318 411.119 96.913 414.493 108.253C420.123 127.172 413.668 149.465 404.454 166.191C401.844 170.929 398.034 177.53 393.754 180.946C389.609 183.951 385.745 186.222 381.014 188.159L381.143 208.843C374.186 208.449 367.167 208.544 360.197 208.401C353.37 208.261 346.352 207.777 339.552 208.414C339.503 203.262 339.021 198.152 338.945 193.005C334.045 192.764 328.402 192.471 324.304 189.465C320.24 186.483 318.577 178.178 318.02 173.387C317.235 166.627 317.204 136.252 318.943 130.811C319.24 129.882 319.921 129.05 320.522 128.297Z" fill="#010101"/>
<path d="M339.552 208.414C339.503 203.262 339.021 198.152 338.945 193.005C334.045 192.764 328.402 192.471 324.304 189.465C320.24 186.483 318.577 178.178 318.02 173.387C317.235 166.627 317.204 136.252 318.943 130.811C319.24 129.882 319.921 129.05 320.522 128.297C322.233 135.855 322.605 143.223 322.623 150.95C325.254 145.902 328.165 131.989 333.215 130.208C334.601 130.228 335.71 130.532 336.718 131.529C338.394 133.187 338.825 135.42 338.771 137.707C338.691 141.022 336.923 148.609 334.279 150.832C332.902 151.99 330.636 152.505 329.869 154.105C330.622 163.788 334.84 171.855 342.208 178.149C350.636 185.35 362.048 190.696 373.35 189.736C375.928 189.518 378.566 188.991 381.014 188.159L381.143 208.843C374.186 208.449 367.167 208.544 360.197 208.401C353.37 208.261 346.352 207.777 339.552 208.414Z" fill="#CCCCCC"/>
</svg>
