<svg width="653" height="847" viewBox="0 0 653 847" fill="none" xmlns="http://www.w3.org/2000/svg">
<path d="M186.008 204.794C190.477 209.889 194.852 215.977 202.189 216.454C202.449 216.471 202.709 216.483 202.97 216.49C202.821 263.759 218.133 313.489 252.162 347.54C272.04 367.431 297.917 380.523 326.49 380.538C355.463 380.554 382.957 367.146 403.043 346.756C431.618 317.748 447.659 275.567 451.047 235.338C467.693 232.336 481.089 224.654 494.863 215.231C502.743 226.428 504.881 238.101 502.473 251.572C500.108 264.8 493.206 279.133 481.849 286.921C475.68 291.152 467.886 293.32 460.459 291.778C455.002 290.646 450.979 287.524 446.942 283.92C438.642 311.073 424.009 336.658 402.929 355.931C397.318 361.061 389.344 365.328 384.41 370.255C383.768 370.495 383.021 370.531 382.737 371.214C381.996 372.994 382.897 375.011 382.173 376.891L382.155 371.358C378.416 373.401 374.607 375.304 370.727 377.065C346.283 387.95 320.02 390.373 294.473 381.76C287.643 379.457 281.379 375.822 274.689 373.331L274.057 373.1C273.059 371.578 271.349 370.797 269.811 369.903C264.433 365.422 258.183 362.108 252.834 357.379C231.199 338.254 218.073 313.516 208.166 286.884C205.031 288.729 202.034 290.474 198.527 291.544C190.379 294.03 182.176 292.626 174.766 288.675C164.263 283.073 156.409 272.855 153.077 261.488C152.86 260.729 152.662 259.964 152.482 259.195C152.303 258.426 152.142 257.653 152.001 256.876C151.86 256.099 151.737 255.319 151.634 254.536C151.531 253.753 151.447 252.968 151.382 252.181C151.317 251.394 151.272 250.606 151.246 249.817C151.22 249.028 151.214 248.238 151.227 247.449C151.24 246.659 151.272 245.87 151.323 245.082C151.374 244.294 151.445 243.508 151.535 242.723C151.625 241.938 151.734 241.156 151.863 240.377C151.992 239.598 152.139 238.823 152.306 238.051C152.472 237.279 152.657 236.511 152.862 235.748C153.066 234.985 153.289 234.228 153.53 233.476C153.771 232.724 154.031 231.979 154.309 231.24C154.587 230.501 154.883 229.769 155.197 229.044C155.511 228.319 155.842 227.603 156.191 226.894C156.54 226.186 156.907 225.487 157.29 224.796C163.848 213.113 173.56 208.32 186.008 204.794Z" fill="#F2B819"/>
<path d="M281.694 143.034C302.486 183.129 348.66 217.719 391.332 231.258C411.683 237.714 430.067 239.325 451.047 235.338C447.659 275.567 431.618 317.748 403.043 346.756C382.957 367.146 355.463 380.554 326.49 380.538C297.917 380.523 272.04 367.431 252.162 347.54C218.133 313.489 202.821 263.759 202.97 216.49C209.173 214.843 215.423 213.269 221.308 210.657C242.516 201.241 261.735 182.677 273.22 162.786C276.866 156.471 279.55 149.994 281.694 143.034Z" fill="#F5F5F5"/>
<path d="M369.895 265.856C375.742 266.673 374.572 273.473 379.203 276.539C380.78 277.583 382.608 278.017 384.47 278.203C395.356 279.293 395.229 267.186 401.521 266.048C402.472 266.491 402.91 267.093 403.344 268.024C404.184 269.82 403.42 271.577 402.822 273.317C401.797 275.117 400.833 277.028 399.434 278.572C399.231 278.793 399.022 279.009 398.808 279.219C398.594 279.43 398.375 279.635 398.15 279.834C397.925 280.033 397.696 280.227 397.462 280.415C397.227 280.603 396.988 280.785 396.745 280.961C396.502 281.136 396.254 281.306 396.002 281.469C395.75 281.632 395.494 281.789 395.234 281.94C394.974 282.091 394.711 282.234 394.444 282.371C394.177 282.508 393.906 282.639 393.633 282.762C393.359 282.885 393.082 283.002 392.803 283.112C392.523 283.221 392.241 283.324 391.956 283.419C391.671 283.514 391.384 283.602 391.095 283.683C390.806 283.764 390.515 283.838 390.222 283.904C389.929 283.97 389.635 284.029 389.339 284.08C389.043 284.131 388.746 284.175 388.448 284.211C388.15 284.248 387.851 284.277 387.552 284.298C387.252 284.319 386.952 284.333 386.652 284.339C381.382 284.486 375.813 282.656 372.018 278.919C369.464 276.404 367.897 273.443 367.978 269.803C368.022 267.804 368.543 267.18 369.895 265.856Z" fill="#222222"/>
<path d="M323.969 277.915C325.213 277.914 326.139 278.085 327.328 278.396C328.297 279.337 328.787 279.66 328.829 281.118C329.001 286.992 321.047 298.94 321.608 304.636C325.282 308.625 330.643 306.892 334.818 309.185C335.763 309.704 335.784 310.149 336.087 311.102C335.535 312.687 334.877 313.263 333.618 314.263C333.393 314.341 333.172 314.428 332.944 314.496C328.914 315.695 324.457 314.294 320.916 312.283C318.324 310.811 315.829 308.669 315.105 305.656C314.166 301.746 321.584 281.982 323.969 277.915Z" fill="#222222"/>
<path d="M285.067 265.872C286.477 265.929 287.907 265.988 288.911 267.134C289.687 268.019 289.918 269.163 289.869 270.31C289.719 273.81 287.436 277.171 284.942 279.478C281.138 282.996 275.855 285.009 270.665 284.687C264.243 284.289 260.005 280.623 256.023 275.988C255.274 274.74 254.371 273.386 253.999 271.964C253.626 270.538 253.965 268.589 254.885 267.419C255.709 266.37 256.311 266.361 257.518 266.235C261.787 267.992 260.352 272.193 263.641 274.92C266.35 277.165 271.637 278.735 275.118 278.19C281.497 277.192 281.844 270.47 284.816 266.217C284.898 266.101 284.984 265.987 285.067 265.872Z" fill="#222222"/>
<path d="M349.978 334.928C350.522 335.063 351.502 335.229 352.01 335.533C353.258 336.28 353.434 336.784 353.899 338.065C353.806 339.029 353.67 339.597 353.175 340.456C349.895 346.146 338.829 350.024 332.673 351.198C321.53 353.324 311.662 350.467 302.47 344.12C301.097 342.968 299.831 341.653 299.871 339.74C299.901 338.333 300.314 338.048 301.299 337.24C302.458 337.008 303.443 336.777 304.554 337.335C306.068 338.094 307.558 339.419 308.956 340.394C309.455 340.745 309.964 341.079 310.485 341.396C311.005 341.714 311.535 342.015 312.074 342.298C312.614 342.581 313.162 342.847 313.719 343.096C314.276 343.344 314.84 343.574 315.411 343.786C315.982 343.998 316.56 344.191 317.144 344.366C317.728 344.541 318.317 344.696 318.911 344.833C319.505 344.97 320.103 345.088 320.705 345.186C321.306 345.285 321.91 345.364 322.517 345.423C333.82 346.613 341.538 341.656 349.978 334.928Z" fill="#222222"/>
<path d="M256.756 46.805C280.008 20.003 310.214 3.14503 345.949 0.569733C379.801 -1.86997 413.738 7.81813 439.531 30.372C459.232 47.598 470.308 67.898 478.451 92.407C495.011 88.896 510.68 87.818 525.675 97.432C535.112 103.483 541.263 113.223 543.547 124.114C547.549 143.193 540.748 162.45 530.253 178.251C520.753 192.556 508.197 204.532 494.863 215.231C481.089 224.654 467.693 232.336 451.047 235.338C430.067 239.325 411.683 237.714 391.332 231.258C348.66 217.719 302.486 183.129 281.694 143.034C279.55 149.994 276.866 156.471 273.22 162.786C261.735 182.677 242.516 201.241 221.308 210.657C215.423 213.269 209.173 214.843 202.97 216.49C202.709 216.483 202.449 216.471 202.189 216.454C194.852 215.977 190.477 209.889 186.008 204.794C166.321 178.295 157.442 149.038 162.274 115.918C165.436 94.241 176.425 75.517 194.203 62.51C212.72 48.962 234.325 45.506 256.756 46.805Z" fill="#010101"/>
<path d="M198.584 392.301C210.099 387.519 221.804 383.258 233.699 379.518C245.594 375.777 257.631 372.572 269.811 369.903C271.349 370.797 273.059 371.578 274.057 373.1L274.689 373.331C281.379 375.822 287.643 379.457 294.473 381.76C320.02 390.373 346.283 387.95 370.727 377.065C374.607 375.304 378.416 373.401 382.155 371.358L382.173 376.891C382.897 375.011 381.996 372.994 382.737 371.214C383.021 370.531 383.768 370.495 384.41 370.255C405.858 372.995 434.862 383.768 454.884 392.129C467.386 397.913 479.771 403.962 491.606 411.031C556.762 449.947 604.077 509.638 630.097 580.674C644.186 619.139 650.751 658.996 652.095 699.831C652.768 720.288 652.981 742.098 644.083 761.01C627.592 796.06 576.295 824.026 540.791 836.655C537.196 837.933 533.564 839.092 529.893 840.131C526.222 841.171 522.522 842.089 518.791 842.886C515.06 843.683 511.307 844.356 507.532 844.907C503.757 845.457 499.968 845.883 496.165 846.185C482.531 847.278 468.403 846.529 454.714 846.467L375.492 846.013L243.607 845.978C221.611 845.975 199.467 846.556 177.492 845.937C176.158 844.681 174.798 843.444 173.507 842.145C164.449 842.481 155.099 841.613 146.099 840.565C105.802 835.876 64.837 821.36 34.702 793.414C10.508 770.977 1.25905 741.835 0.162046 709.612C-2.76795 623.561 36.7881 527.003 95.3641 464.607C124.612 433.452 160.022 410.261 198.584 392.301Z" fill="#F2B819"/>
<path d="M497.07 609.882C499.417 612.55 500.979 619.358 502.141 622.916C511.497 651.562 518.182 683.424 516.396 713.663C534.431 710.213 551.845 708.145 570.157 707.021C566.872 708.15 563.493 708.904 560.118 709.709C539.41 714.916 518.525 719.276 497.463 722.789C497.829 702.347 499.028 681.974 498.848 661.499C498.697 644.268 497.284 627.075 497.07 609.882Z" fill="#010101"/>
<path d="M154.702 613.35C155.972 618.127 155.537 624.474 155.707 629.456C156.175 642.126 156.469 654.8 156.589 667.479C156.953 689.772 157.873 712.038 158.07 734.344C161.159 737.142 164.143 740.025 166.89 743.164C170.356 747.124 177.658 755.822 177.295 761.3C176.581 762.408 176.47 762.424 175.236 762.92C174.735 762.819 174.455 762.8 173.982 762.503C171.768 761.109 167.64 753.399 165.566 750.843C156.12 739.203 143.495 729.774 130.18 723.015C115.966 715.688 96.95 712.436 81.073 710.818C78.553 710.561 76.048 710.739 73.52 710.482C96.659 704.546 113.392 708.937 135.266 717.038C138.306 684.662 144.693 644.049 154.702 613.35Z" fill="#010101"/>
<path d="M249.578 668.65L233.128 625.71C230.286 618.281 226.106 610.053 224.721 602.25C224.368 600.262 224.608 598.797 225.407 596.963C228.058 590.876 232.768 589.396 238.57 587.265C254.072 581.57 269.754 576.306 285.335 570.827C292.042 568.468 301.965 563.94 308.703 562.981C311.653 562.561 314.458 563.246 317.129 564.505C319.971 565.844 321.902 568.405 323.333 571.134C327.631 579.331 330.911 590.295 334.506 599.097C339.563 611.482 344.26 623.997 349.242 636.409C352.961 645.677 357.084 654.821 360.218 664.311C360.874 666.297 361.545 668.277 361.871 670.347C361.56 670.888 361.343 671.229 361.091 671.767C358.493 677.322 367.36 693.132 369.498 699.251C364.062 701.836 358.887 703.408 352.82 703.382C329.778 703.283 265.469 684.755 249.578 668.65Z" fill="#010101"/>
<path d="M277.86 597.995C278.409 597.919 278.96 597.854 279.513 597.821C281.288 597.713 283.214 598.037 284.465 599.432C285.345 600.412 285.817 601.424 285.645 602.77C285.371 604.903 283.975 606.153 282.378 607.403C280.195 607.549 278.443 607.672 276.638 606.213C275.579 605.358 274.957 604.184 274.964 602.801C274.976 600.528 276.292 599.381 277.86 597.995Z" fill="#F5F5F5"/>
<path d="M361.871 670.347C363.552 668.594 365.334 666.426 367.422 665.185C369.485 663.96 371.734 663.824 374.006 664.523C378.759 665.985 382.768 670.429 386.115 673.91C401.088 689.482 410.325 707.269 420.203 726.15C425.575 728.351 431.239 729.615 436.534 732.058L436.651 811.419C405.499 812.664 373.375 810.725 343.505 801.139C312.513 791.192 272.297 767.505 257.085 737.865C264.137 740.657 270.928 743.069 278.388 744.623C275.859 743.239 273.366 741.795 270.908 740.29C256.164 731.225 247.306 720.436 243.293 703.489C250.633 707.521 257.692 711.693 265.605 714.554C253.933 706.923 241.326 697.392 235.964 683.989C234.646 680.693 233.738 676.806 235.309 673.43C237.113 669.554 240.77 667.972 244.532 666.58C246.234 667.207 247.903 667.954 249.578 668.65C265.469 684.755 329.778 703.283 352.82 703.382C358.887 703.408 364.062 701.836 369.498 699.251C367.36 693.132 358.493 677.322 361.091 671.767C361.343 671.229 361.56 670.888 361.871 670.347Z" fill="#F5F5F5"/>
<path d="M198.584 392.301C210.099 387.519 221.804 383.258 233.699 379.518C245.594 375.777 257.631 372.572 269.811 369.903C271.349 370.797 273.059 371.578 274.057 373.1L274.689 373.331C281.379 375.822 287.643 379.457 294.473 381.76C320.02 390.373 346.283 387.95 370.727 377.065C374.607 375.304 378.416 373.401 382.155 371.358L382.173 376.891C382.897 375.011 381.996 372.994 382.737 371.214C383.021 370.531 383.768 370.495 384.41 370.255C405.858 372.995 434.862 383.768 454.884 392.129C452.15 400.687 444.195 413.133 439.706 421.338C421.225 455.113 396.674 501.438 361.441 519.679C360.419 520.205 359.384 520.705 358.337 521.178C357.29 521.652 356.232 522.1 355.163 522.521C354.093 522.942 353.013 523.335 351.924 523.702C350.835 524.069 349.738 524.408 348.631 524.72C347.525 525.032 346.412 525.316 345.291 525.572C344.171 525.828 343.045 526.056 341.913 526.255C340.781 526.454 339.645 526.625 338.505 526.768C337.364 526.911 336.221 527.026 335.075 527.111C333.928 527.196 332.781 527.253 331.632 527.281C330.483 527.309 329.334 527.308 328.185 527.278C327.036 527.249 325.889 527.19 324.743 527.103C323.597 527.016 322.454 526.9 321.313 526.756C320.173 526.611 319.037 526.438 317.906 526.237C316.774 526.036 315.648 525.806 314.528 525.549C313.408 525.291 312.295 525.005 311.19 524.692C310.084 524.379 308.987 524.038 307.898 523.669C265.298 509.673 236.851 459.564 215.864 422.832C210.629 413.671 203.422 403.061 199.091 393.723C198.794 393.083 198.759 392.9 198.584 392.301Z" fill="#C69614"/>
</svg>
