<svg width="818" height="705" viewBox="0 0 818 705" fill="none" xmlns="http://www.w3.org/2000/svg">
<path d="M681.28 420.633L709.704 420.642C713.369 420.645 717.472 420.177 721.076 420.559C722.463 420.706 723.311 421.111 724.417 421.931C725.011 423.154 725.079 423.376 724.98 424.727C723.839 426.282 722.498 426.772 720.654 427.051C714.262 428.019 706.872 427.095 700.363 427.088L540.49 427.281C525.729 427.296 510.866 427.716 496.124 427.475C494.429 427.447 492.694 427.223 491.092 426.65C490.389 426.398 489.615 426.033 489.055 425.528C488.367 424.906 488.165 424.555 487.919 423.693C488.439 422.313 489.022 421.673 490.427 421.119C494.364 419.567 558.906 420.688 567.31 420.923C575.214 421.571 583.595 421.117 591.541 421.117L638.535 421.054L666.669 421.124C671.402 421.117 676.671 421.597 681.28 420.633Z" fill="#222222"/>
<path d="M483.141 454.613C499.943 452.717 513.7 454.215 527.271 465.046C534.669 470.951 546.218 482.693 547.04 492.704C547.191 494.538 546.948 496.897 545.739 498.378C544.99 499.296 543.821 499.982 542.841 500.632C541.315 499.06 539.708 497.575 538.02 496.178C536.333 494.781 534.575 493.479 532.746 492.272C516.444 481.613 500.751 482.482 482.481 486.324C482.729 485.225 482.542 485.613 483.098 484.718C485.169 481.388 487.517 477.434 488.418 473.598C490.032 466.725 486.73 460.229 483.141 454.613Z" fill="#E2C6A4"/>
<path d="M345.8 1.147C346.119 1.106 346.436 1.06099 346.755 1.02599C347.327 0.959995 347.9 0.908329 348.475 0.870996C349.05 0.832996 349.625 0.809655 350.2 0.800989C350.776 0.792322 351.352 0.797987 351.927 0.817987C352.502 0.838654 353.077 0.873324 353.65 0.921991C354.224 0.970658 354.796 1.03365 355.367 1.11099C355.937 1.18832 356.505 1.28 357.071 1.386C357.637 1.49133 358.2 1.61099 358.76 1.74499C359.32 1.87899 359.876 2.02699 360.429 2.18899C360.982 2.35032 361.53 2.52566 362.073 2.71499C362.617 2.90432 363.156 3.10699 363.69 3.32299C364.223 3.53899 364.751 3.76799 365.274 4.00999C365.796 4.25266 366.312 4.50799 366.821 4.77599C367.33 5.04466 367.833 5.32566 368.328 5.619C368.824 5.91233 369.312 6.21766 369.792 6.535C370.272 6.853 370.744 7.18266 371.207 7.524C371.671 7.86533 372.126 8.21799 372.572 8.58199C379.87 14.499 384.48 23.564 385.417 32.875C385.48 33.4463 385.528 34.019 385.562 34.593C385.596 35.167 385.616 35.7417 385.621 36.317C385.626 36.8917 385.617 37.4663 385.593 38.041C385.569 38.6157 385.531 39.189 385.478 39.761C385.425 40.3337 385.357 40.9047 385.276 41.474C385.195 42.0433 385.099 42.61 384.988 43.174C384.878 43.7387 384.754 44.3 384.616 44.858C384.477 45.416 384.325 45.97 384.159 46.52C383.992 47.0707 383.812 47.6167 383.618 48.158C383.425 48.6993 383.217 49.2353 382.996 49.766C382.775 50.2973 382.541 50.8223 382.294 51.341C382.047 51.8603 381.786 52.373 381.513 52.879C381.24 53.385 380.955 53.8837 380.656 54.375C380.358 54.8663 380.048 55.35 379.725 55.826C379.402 56.302 379.068 56.7697 378.722 57.229C378.375 57.6877 378.018 58.1377 377.649 58.579C370.778 66.75 361.338 70.686 350.76 70.446C348.299 70.39 345.08 69.512 342.748 69.84C342.599 69.861 342.454 69.907 342.308 69.94C336.794 74.618 331.486 79.521 326.154 84.402C327.063 77.375 328.478 70.389 329.482 63.368C329.073 63.0467 328.672 62.716 328.279 62.376C327.886 62.036 327.5 61.6873 327.122 61.33C326.745 60.9733 326.375 60.608 326.014 60.234C325.653 59.86 325.3 59.478 324.956 59.088C324.613 58.698 324.278 58.3003 323.952 57.895C323.626 57.4903 323.309 57.0783 323.002 56.659C322.695 56.239 322.398 55.8127 322.11 55.38C321.822 54.9473 321.544 54.5083 321.276 54.063C321.008 53.617 320.75 53.1657 320.503 52.709C320.255 52.2517 320.018 51.789 319.791 51.321C319.564 50.853 319.349 50.3803 319.144 49.903C318.939 49.425 318.744 48.9427 318.561 48.456C318.378 47.97 318.205 47.4797 318.044 46.985C317.883 46.491 317.733 45.9933 317.594 45.492C317.455 44.9913 317.328 44.4877 317.213 43.981C317.097 43.4737 316.993 42.9643 316.9 42.453C315.165 32.879 316.905 22.789 322.601 14.804C328.308 6.80299 336.26 2.703 345.8 1.147Z" fill="#F2B819"/>
<path d="M365.587 24.823C367.19 25.005 367.927 25.305 369.295 26.163C370.035 27.376 370.135 27.542 370.115 28.953C367.446 33.849 350.513 50.446 345.695 53.891C342.57 51.119 339.58 48.166 336.542 45.297C335.818 44.604 335.098 43.9 334.457 43.129C332.964 41.335 332.363 39.767 332.543 37.443C333.291 36.503 333.549 36.139 334.886 36.137C339.258 36.131 343.426 41.749 346.028 44.715C352.69 38.249 358.617 30.963 365.587 24.823Z" fill="#F5F5F5"/>
<path d="M567.235 341.054C593.797 341.034 620.443 340.573 646.998 341.031L646.878 420.668C658.303 420.619 669.868 420.231 681.28 420.633C676.671 421.597 671.402 421.117 666.669 421.124L638.535 421.054L591.541 421.117C583.595 421.117 575.214 421.571 567.31 420.923L567.235 341.054Z" fill="#2D2D2D"/>
<path d="M379.978 679.767C407.601 661.025 435.934 643.376 463.696 624.863C471.569 632.545 476.219 642.327 476.418 653.456C476.682 668.29 468.091 682.674 461.141 695.279L468.382 694.94C477.023 677.187 486.207 658.479 479.291 638.455C477.987 634.679 476.164 631.087 474.174 627.629C489.674 631.094 525.43 640.706 534.081 653.91C536.27 657.251 537.209 661.105 536.309 665.044C534.745 671.885 528.204 676.51 522.471 679.834C520.046 681.24 517.505 682.541 514.973 683.743C506.216 687.128 497.504 690.404 488.43 692.846C467.676 698.432 412.485 708.603 393.789 699.928C387.748 697.125 383.592 692.056 380.845 686.12C380.315 683.997 380.13 681.941 379.978 679.767Z" fill="#F2B819"/>
<path d="M267.907 148.215C276.438 147.052 282.455 144.81 288.956 139.105C296.153 153.573 303.889 170.158 305.749 186.285C311.68 186.429 318.666 186.632 323.043 191.303C324.112 192.444 324.939 193.927 324.78 195.548C324.648 196.882 323.82 197.964 322.745 198.7C318.868 201.354 312.692 200.692 308.205 200.502C309.192 215.258 310.414 234.336 299.997 246.403C294.504 252.767 287.163 254.891 279.086 255.291C272.891 255.598 266.705 255.05 260.514 255.129C260.531 267.834 261.447 282.966 260.309 295.372C250.303 304.534 236.35 308.765 222.885 308.235C211.515 307.788 198.256 303.927 190.332 295.327C191.324 278.25 189.643 260.97 190.807 243.888C190.986 243.972 191.163 244.059 191.343 244.141C204.24 250.065 216.874 251.046 230.29 245.947C244.135 240.686 254.826 229.687 260.783 216.261C256.198 216.664 252.312 217.125 248.041 214.953C243.575 212.682 240.59 208.427 239.103 203.727C236.943 196.897 237.572 188.467 241.064 182.201C243.547 177.744 246.652 175.691 251.373 174.254C267.766 178.786 265.601 193.099 271.166 197.36C272.154 198.116 272.419 198.077 273.557 197.919C273.899 197.516 274.041 197.392 274.284 196.847C280.362 183.202 273.987 160.728 267.907 148.215Z" fill="#E2C6A4"/>
<path d="M290.183 84.915C295.828 90.579 299.39 97.572 300.258 105.542C301.627 118.108 296.776 129.52 288.956 139.105C282.455 144.81 276.438 147.052 267.907 148.215C273.987 160.728 280.362 183.202 274.284 196.847C274.041 197.392 273.899 197.516 273.557 197.919C272.419 198.077 272.154 198.116 271.166 197.36C265.601 193.099 267.766 178.786 251.373 174.254C246.652 175.691 243.547 177.744 241.064 182.201C237.572 188.467 236.943 196.897 239.103 203.727C240.59 208.427 243.575 212.682 248.041 214.953C252.312 217.125 256.198 216.664 260.783 216.261C254.826 229.687 244.135 240.686 230.29 245.947C216.874 251.046 204.24 250.065 191.343 244.141C191.163 244.059 190.986 243.972 190.807 243.888C179.362 236.532 170.956 229.071 164.101 217.149C153.915 199.434 149.64 175.816 155.089 155.873C157.921 145.505 163.579 140.674 172.644 135.493C172.273 128.445 172.162 120.999 175.509 114.564C178.142 109.502 182.641 105.736 187.64 103.138C215.774 88.521 243.962 109.071 271.557 100.297C279.95 97.628 286.082 92.829 290.183 84.915Z" fill="#222222"/>
<path d="M399.305 329.037C396.755 325.274 396.119 320.691 395.903 316.24C395.1 299.688 395.617 282.858 395.609 266.276L395.639 172.042L395.565 116.699C395.539 106.955 394.698 96.318 395.943 86.672C396.692 80.867 399.374 75.851 403.328 71.598C409.474 64.987 417.766 63.522 426.373 63.257C452.812 62.443 479.505 63.174 505.964 63.188L753.565 63.407L782.056 63.29C787.825 63.268 793.766 62.948 799.501 63.578C803.965 64.067 808.006 66.376 811.173 69.497C814.091 72.374 815.796 76.441 816.634 80.394C818.125 87.426 817.371 95.465 817.388 102.653L817.53 137.838L812.847 138.731C776.205 139.408 739.438 138.673 702.785 138.664L513.599 138.8C475.871 138.727 437.926 137.825 400.223 138.897C399.673 180.598 400.332 222.415 400.349 264.129L400.359 299.516C400.356 307.43 399.575 316.307 401.264 324.034L400.476 324.544C400.454 324.348 400.44 324.151 400.411 323.956C400.171 322.361 399.428 320.882 399.341 319.267C399.215 316.91 400.536 311.581 399.089 309.727C398.515 310.098 397.958 310.468 397.404 310.869L396.718 310.049C394.689 316.056 399.081 323.298 399.305 329.037Z" fill="#2D2D2D"/>
<path d="M715.851 92.603C717.195 92.754 718.498 92.927 719.76 93.44C722.234 94.446 724.385 96.318 725.38 98.834C726.353 101.295 726.194 103.991 725.103 106.38C723.489 109.913 720.809 111.37 717.309 112.679C715.583 112.617 713.98 112.483 712.394 111.735C709.699 110.463 707.602 108.203 706.766 105.317C706.67 104.99 706.591 104.658 706.53 104.323C706.469 103.987 706.425 103.649 706.399 103.309C706.373 102.969 706.365 102.628 706.376 102.287C706.386 101.946 706.414 101.607 706.46 101.269C706.506 100.931 706.57 100.596 706.651 100.265C706.732 99.9337 706.831 99.6073 706.947 99.286C707.063 98.9653 707.195 98.6517 707.344 98.345C707.493 98.0377 707.657 97.7393 707.838 97.45C709.771 94.347 712.429 93.352 715.851 92.603Z" fill="#F5F5F5"/>
<path d="M760.271 92.616C761.809 92.768 763.374 92.896 764.815 93.492C765.122 93.6173 765.423 93.7577 765.716 93.913C766.009 94.069 766.294 94.2393 766.571 94.424C766.847 94.6087 767.113 94.807 767.369 95.019C767.624 95.2303 767.869 95.4543 768.102 95.691C768.335 95.9277 768.556 96.1757 768.764 96.435C768.971 96.6937 769.165 96.9627 769.346 97.242C769.527 97.5207 769.693 97.8077 769.844 98.103C769.995 98.399 770.131 98.7017 770.252 99.011C771.27 101.667 771.067 104.589 769.806 107.125C768.242 110.273 765.844 111.524 762.663 112.679C760.813 112.641 759.082 112.544 757.378 111.749C754.655 110.477 752.478 108.167 751.593 105.271C751.498 104.97 751.418 104.664 751.353 104.354C751.288 104.045 751.24 103.733 751.207 103.418C751.174 103.103 751.156 102.788 751.155 102.471C751.154 102.155 751.169 101.84 751.199 101.525C751.23 101.21 751.276 100.897 751.338 100.587C751.4 100.277 751.478 99.9707 751.571 99.668C751.664 99.366 751.771 99.0693 751.894 98.778C752.017 98.486 752.155 98.2013 752.306 97.924C754.071 94.706 756.873 93.487 760.271 92.616Z" fill="#F5F5F5"/>
<path d="M429.496 88.392C456.192 88.012 482.948 88.398 509.649 88.472L509.645 113.157C482.923 113.022 456.202 113.093 429.481 113.37L429.496 88.392Z" fill="#F5F5F5"/>
<path d="M482.481 486.324C500.751 482.482 516.444 481.613 532.746 492.272C534.575 493.479 536.333 494.781 538.02 496.178C539.708 497.575 541.315 499.06 542.841 500.632C552.328 512.349 557.763 524.436 556.171 539.784C554.494 555.948 545.192 569.543 532.766 579.602C521.641 588.608 509.008 595.947 496.94 603.61C487.266 609.752 477.817 616.284 467.926 622.075C466.525 622.993 465.037 623.864 463.696 624.863C435.934 643.376 407.601 661.025 379.978 679.767L373.543 683.82C361.085 692.644 349.67 700.151 334.272 702.63C322.872 704.466 311.3 704.024 299.793 704.018L213.499 703.927C200.581 703.908 187.063 704.662 174.36 701.991C159.349 698.834 146.268 691.765 133.963 682.853C126.369 676.524 117.936 671.063 109.98 665.19C88.9872 649.696 67.7756 634.508 46.3449 619.627L26.7249 605.709C22.2939 602.563 17.5779 599.629 13.6199 595.889C9.12691 591.644 5.70291 586.192 3.48491 580.435C-1.27009 568.088 -1.09209 542.934 4.45791 530.767C9.58591 519.523 18.9639 511.196 30.5259 507.024C53.7969 498.626 74.1809 507.922 95.3099 517.281C106.253 522.116 117.145 527.066 127.984 532.131C127.947 539.703 126.199 567.76 130.628 572.312C132.187 573.914 134.858 575.02 137.055 575.224C145.224 575.982 153.999 575.368 162.213 575.363L210.477 575.46L288.865 575.531C302.507 575.535 316.301 575.963 329.928 575.471C333.641 575.336 338.901 575.415 341.606 572.611C349.224 564.716 342.269 547.431 345.511 540.822C382.224 524.697 419.353 509.617 456.164 493.721C464.419 489.984 473.821 488.963 482.481 486.324Z" fill="#222222"/>
<path d="M119.97 519.921C105.251 511.921 68.4919 494.484 57.6909 484.038C51.8339 478.374 48.4909 470.018 48.4419 461.882C48.4169 457.688 49.3169 453.634 50.6389 449.672C53.0109 442.56 56.3009 435.6 59.2029 428.684L71.8719 398.103C77.9929 383.535 83.3379 367.87 90.8769 354.006C96.0949 344.411 102.304 335.658 110.021 327.909C131.491 306.35 160.128 295.499 190.332 295.327C198.256 303.927 211.515 307.788 222.885 308.235C236.35 308.765 250.303 304.534 260.309 295.372C267.248 295.429 274.192 295.367 281.092 296.194C282.592 296.37 284.087 296.578 285.578 296.818C287.069 297.057 288.555 297.328 290.034 297.63C291.513 297.932 292.986 298.265 294.452 298.63C295.917 298.995 297.374 299.39 298.823 299.815C300.272 300.241 301.711 300.697 303.141 301.184C304.57 301.671 305.989 302.188 307.396 302.735C308.804 303.282 310.2 303.858 311.583 304.463C312.966 305.068 314.336 305.703 315.693 306.367C317.05 307.03 318.392 307.722 319.719 308.442C321.046 309.162 322.358 309.91 323.653 310.686C324.949 311.461 326.228 312.264 327.49 313.093C328.751 313.923 329.995 314.779 331.221 315.661C332.446 316.543 333.653 317.451 334.84 318.384C336.027 319.317 337.195 320.274 338.342 321.257C339.489 322.24 340.614 323.246 341.719 324.276C342.823 325.305 343.905 326.358 344.965 327.434C363.879 346.798 378.398 382.678 390.144 407.361C396.071 419.818 402.709 432.256 407.956 444.997L441.732 444.994C451.022 444.981 461.934 443.724 470.9 446.155C474.879 447.233 478.438 449.819 481.327 452.711C481.945 453.332 482.55 453.966 483.141 454.613C486.73 460.229 490.032 466.725 488.418 473.598C487.517 477.434 485.169 481.388 483.098 484.718C482.542 485.613 482.729 485.225 482.481 486.324C473.821 488.963 464.419 489.984 456.164 493.721C419.353 509.617 382.224 524.697 345.511 540.822C342.269 547.431 349.224 564.716 341.606 572.611C338.901 575.415 333.641 575.336 329.928 575.471C316.301 575.963 302.507 575.535 288.865 575.531L210.477 575.46L162.213 575.363C153.999 575.368 145.224 575.982 137.055 575.224C134.858 575.02 132.187 573.914 130.628 572.312C126.199 567.76 127.947 539.703 127.984 532.131C128.011 529.843 128.468 525.934 127.37 523.991L119.97 519.921Z" fill="#2D2D2D"/>
<path d="M117.776 449.615C121.555 443.194 125.003 436.601 128.121 429.834C128.106 439.221 128.874 449.265 127.869 458.578C125.554 456.305 123.065 454.216 120.616 452.089L117.776 449.615Z" fill="#F5F5F5"/>
<path d="M119.97 519.921C119.991 512.202 119.03 455.012 120.616 452.089C123.065 454.216 125.554 456.305 127.869 458.578C128.32 465.067 128.615 521.607 127.37 523.991L119.97 519.921Z" fill="#2D2D2D"/>
<path d="M344.941 457.232C351.306 468.164 357.468 484.866 365.622 493.624C379.732 508.78 396.998 506.118 415.328 502.452C423.356 500.846 431.427 499.29 439.351 497.224C443.76 496.074 450.894 493.273 455.348 493.634C455.621 493.656 455.892 493.692 456.164 493.721C419.353 509.617 382.224 524.697 345.511 540.822C344.161 538.894 344.464 466.406 344.941 457.232Z" fill="#F5F5F5"/>
<path d="M812.847 138.731L817.53 137.838L817.643 269.176C817.566 279.725 817.56 290.275 817.626 300.824C817.651 307.109 818.134 313.78 817.338 320.017C816.677 325.201 814.588 330.098 810.939 333.88C803.222 341.878 792.996 340.984 782.799 340.992L646.998 341.031C620.443 340.573 593.797 341.034 567.235 341.054C554.726 340.72 542.128 341.027 529.611 341.023L457.062 340.957C446.685 340.95 423.027 342.155 414.405 340.105C414.016 340.01 413.63 339.906 413.246 339.792C412.862 339.678 412.481 339.555 412.104 339.422C411.726 339.289 411.352 339.147 410.981 338.996C410.61 338.845 410.244 338.685 409.881 338.516C409.518 338.347 409.159 338.169 408.805 337.982C408.451 337.795 408.102 337.6 407.757 337.396C407.412 337.192 407.073 336.98 406.739 336.759C406.405 336.539 406.077 336.311 405.754 336.074C405.431 335.837 405.114 335.593 404.803 335.34C404.492 335.088 404.188 334.828 403.889 334.561C403.591 334.294 403.3 334.019 403.015 333.738C402.73 333.457 402.453 333.168 402.183 332.873C401.912 332.578 401.649 332.276 401.393 331.968C401.138 331.66 400.89 331.346 400.65 331.026C400.409 330.705 400.177 330.379 399.953 330.048C399.728 329.716 399.512 329.379 399.305 329.037C399.081 323.298 394.689 316.056 396.718 310.049L397.404 310.869C397.958 310.468 398.515 310.098 399.089 309.727C400.536 311.581 399.215 316.91 399.341 319.267C399.428 320.882 400.171 322.361 400.411 323.956C400.44 324.151 400.454 324.348 400.476 324.544L401.264 324.034C402.599 326.585 404.087 329.008 406.16 331.033C409.768 334.558 413.946 336.206 418.898 336.688C431.965 337.958 447.696 336.915 461.108 336.898L787.232 336.93C794.991 336.892 802.151 336.989 807.916 330.912C810.503 328.184 812.137 325.06 812.68 321.327C813.667 314.534 813.133 307.236 813.11 300.366L813.024 265.526L812.847 138.731Z" fill="#222222"/>
</svg>
